<svg width="24" height="24" fill="none" xmlns="http://www.w3.org/2000/svg"><path d="M5.5 21c-.6 0-1.18-.12-1.73-.35a4.6 4.6 0 0 1-1.46-.97 4.6 4.6 0 0 1-.97-1.46C1.11 17.67 1 17.09 1 16.5c0-.6.11-1.18.34-1.73a4.6 4.6 0 0 1 .97-1.46 4.6 4.6 0 0 1 1.46-.97C4.32 12.11 4.9 12 5.5 12c1.19 0 2.33.47 3.18 1.31.84.85 1.32 1.99 1.32 3.19 0 1.19-.48 2.33-1.32 3.18A4.53 4.53 0 0 1 5.5 21Zm0-2c.66 0 1.29-.27 1.76-.74S8 17.16 8 16.5c0-.67-.27-1.3-.74-1.77S6.16 14 5.5 14c-.67 0-1.3.26-1.77.73S3 15.83 3 16.5c0 .66.26 1.29.73 1.76s1.1.74 1.77.74Zm13 2c-.6 0-1.18-.12-1.73-.35a4.6 4.6 0 0 1-1.46-.97 4.6 4.6 0 0 1-.97-1.46c-.23-.55-.34-1.13-.34-1.72 0-.6.11-1.18.34-1.73a4.6 4.6 0 0 1 .97-1.46 4.6 4.6 0 0 1 1.46-.97c.55-.23 1.13-.34 1.73-.34 1.19 0 2.33.47 3.18 1.31.84.85 1.32 1.99 1.32 3.19 0 1.19-.48 2.33-1.32 3.18A4.53 4.53 0 0 1 18.5 21Zm0-2c.66 0 1.29-.27 1.76-.74s.74-1.1.74-1.76c0-.67-.27-1.3-.74-1.77S19.16 14 18.5 14c-.67 0-1.3.26-1.77.73S16 15.83 16 16.5c0 .66.26 1.29.73 1.76s1.1.74 1.77.74Zm-7.48-8.7L13 12v6h-2v-5l-2.72-2.27c-.25-.17-.45-.38-.6-.64a1.84 1.84 0 0 1-.26-.83c-.03-.29.01-.58.11-.86s.26-.53.47-.73l2.82-2.83c.19-.19.41-.34.65-.44.24-.1.5-.15.77-.15.26 0 .52.05.76.15.25.1.47.25.65.44l1.42 1.41a6.962 6.962 0 0 0 3.91 1.98l-.01 2.01a8.98 8.98 0 0 1-5.32-2.57l-2.63 2.63ZM16 5c-.54 0-1.04-.22-1.42-.59a2.016 2.016 0 0 1 0-2.83 2.016 2.016 0 0 1 2.83 0c.37.38.59.88.59 1.42 0 .53-.22 1.03-.59 1.41-.38.37-.88.59-1.41.59Z" fill="#FFA800"/></svg>