<svg width="16" height="16" fill="none" xmlns="http://www.w3.org/2000/svg"><defs><clipPath id="a"><path fill="#fff" fill-opacity="0" d="M0 0h16v16H0z"/></clipPath></defs><path fill="none" d="M0 0h16v16H0z"/><g clip-path="url(#a)"><path d="M11.33 2.66H14a.668.668 0 0 1 .66.67V14c0 .17-.07.34-.19.47-.13.12-.3.19-.47.19H2c-.18 0-.35-.07-.48-.19a.702.702 0 0 1-.19-.47V3.33A.665.665 0 0 1 2 2.66h2.66V1.33H6v1.33h4V1.33h1.33v1.33Zm2 5.34H2.66v5.33h10.67V8ZM10 4H6v1.33H4.66V4h-2v2.66h10.67V4h-2v1.33H10V4ZM4 9.33h1.33v1.33H4V9.33Zm3.33 0h1.33v1.33H7.33V9.33Zm3.33 0H12v1.33h-1.34V9.33Z" fill="#878787"/></g></svg>