<svg width="24" height="24" fill="none" xmlns="http://www.w3.org/2000/svg"><defs><clipPath id="a"><path fill="#fff" fill-opacity="0" d="M0 0h24v24H0z"/></clipPath></defs><path fill="none" d="M0 0h24v24H0z"/><g clip-path="url(#a)"><path d="M12 22C6.47 22 2 17.52 2 12 2 6.47 6.47 2 12 2c5.52 0 10 4.47 10 10 0 5.52-4.48 10-10 10Zm-2.29-2.34c-.99-2.09-1.56-4.35-1.69-6.66H4.06c.19 1.53.83 2.98 1.83 4.17 1 1.18 2.33 2.05 3.82 2.49Zm.32-6.66c.15 2.43.84 4.73 1.97 6.75 1.15-2.08 1.82-4.39 1.97-6.75h-3.94Zm9.9 0h-3.96c-.13 2.31-.7 4.57-1.68 6.66a7.994 7.994 0 0 0 3.81-2.49c1-1.19 1.64-2.64 1.83-4.17ZM4.06 11h3.96c.13-2.32.7-4.58 1.69-6.67a7.976 7.976 0 0 0-3.82 2.49c-1 1.19-1.64 2.64-1.83 4.18Zm5.97 0h3.93c-.14-2.37-.81-4.68-1.96-6.76A15.784 15.784 0 0 0 10.03 11Zm4.26-6.67c.98 2.09 1.55 4.35 1.68 6.67h3.96a8.031 8.031 0 0 0-1.83-4.18c-1-1.18-2.33-2.05-3.81-2.49Z" fill="#FFF"/></g></svg>