<svg width="16" height="16" fill="none" xmlns="http://www.w3.org/2000/svg"><defs><clipPath id="a"><path fill="#fff" fill-opacity="0" d="M0 0h16v16H0z"/></clipPath></defs><path fill="none" d="M0 0h16v16H0z"/><g clip-path="url(#a)"><path d="m4.86 13.88-3.53.78.78-3.53c-.51-.96-.78-2.04-.78-3.13a6.66 6.66 0 0 1 6.66-6.67c3.69 0 6.67 2.98 6.67 6.67a6.66 6.66 0 0 1-6.67 6.66c-1.09 0-2.17-.27-3.13-.78Zm.19-1.41.43.23c.78.42 1.64.63 2.51.63 1.06 0 2.09-.31 2.97-.9a5.36 5.36 0 0 0 2.27-5.48 5.442 5.442 0 0 0-1.46-2.73c-.75-.74-1.7-1.25-2.73-1.46a5.36 5.36 0 0 0-5.48 2.27 5.339 5.339 0 0 0-.27 5.48l.23.43-.44 1.97 1.97-.44Z" fill="#878787"/></g></svg>