<svg width="24" height="24" fill="none" xmlns="http://www.w3.org/2000/svg"><path d="M1.33 22a7.99 7.99 0 0 1 8-8 7.99 7.99 0 0 1 8 8h-2a5.993 5.993 0 0 0-6-6 5.993 5.993 0 0 0-6 6h-2Zm8-9c-3.32 0-6-2.69-6-6 0-3.32 2.68-6 6-6 3.31 0 6 2.68 6 6 0 3.31-2.69 6-6 6Zm0-2a3.999 3.999 0 1 0 0-8 3.999 3.999 0 1 0 0 8Zm8.28 3.7c1.41.63 2.6 1.66 3.44 2.95A8.07 8.07 0 0 1 22.33 22h-2c0-1.16-.34-2.29-.96-3.26a6.046 6.046 0 0 0-2.58-2.22l.82-1.82Zm-.69-11.29a5.51 5.51 0 0 1 2.48 2.02c.61.91.93 1.98.93 3.07 0 1.37-.51 2.69-1.44 3.7a5.425 5.425 0 0 1-3.56 1.77v-2.01c.74-.11 1.43-.45 1.96-.97a3.506 3.506 0 0 0 .65-4.11c-.35-.66-.9-1.2-1.57-1.53l.55-1.94Z" fill="#FFA800"/></svg>