<svg width="32" height="32" fill="none" xmlns="http://www.w3.org/2000/svg"><defs><clipPath id="a"><path transform="translate(0 -.584)" fill="#fff" fill-opacity="0" d="M0 0h32v32H0z"/></clipPath></defs><path fill="none" d="M0-.584h32v32H0z"/><g clip-path="url(#a)"><path d="M16 2.08c3.62 0 4.07.01 5.49.08 1.42.06 2.39.29 3.24.62.88.34 1.62.8 2.36 1.53.68.67 1.2 1.48 1.54 2.37.33.85.55 1.82.62 3.23.06 1.43.08 1.88.08 5.5s-.01 4.08-.08 5.5-.29 2.38-.62 3.23c-.34.89-.86 1.7-1.54 2.37-.67.67-1.47 1.2-2.36 1.53-.85.33-1.82.56-3.24.62-1.42.07-1.87.08-5.49.08-3.63 0-4.08-.01-5.5-.08-1.42-.06-2.39-.29-3.24-.62-.89-.33-1.69-.85-2.36-1.53-.68-.67-1.2-1.48-1.54-2.37-.33-.85-.55-1.81-.62-3.23-.06-1.42-.08-1.88-.08-5.5s.02-4.07.08-5.5c.07-1.42.29-2.38.62-3.23.34-.89.86-1.7 1.54-2.37.67-.67 1.47-1.2 2.36-1.53.85-.33 1.82-.56 3.24-.62 1.42-.07 1.87-.08 5.5-.08Zm0 6.66c-1.77 0-3.47.71-4.72 1.96a6.652 6.652 0 0 0-1.95 4.71c0 1.77.7 3.46 1.95 4.71A6.643 6.643 0 0 0 16 22.08c1.76 0 3.46-.7 4.71-1.96a6.652 6.652 0 0 0 1.95-4.71c0-1.77-.7-3.46-1.95-4.71A6.68 6.68 0 0 0 16 8.74Zm8.66-.33c0-.44-.17-.87-.49-1.18-.31-.31-.73-.49-1.17-.49-.45 0-.87.18-1.18.49-.32.31-.49.74-.49 1.18 0 .44.17.87.49 1.18.31.31.73.49 1.18.49.44 0 .86-.18 1.17-.49.32-.31.49-.74.49-1.18Zm-8.66 3a4.014 4.014 0 0 1 4 4 4.014 4.014 0 0 1-4 4c-1.07 0-2.08-.42-2.83-1.17a4.004 4.004 0 0 1 0-5.66c.75-.75 1.76-1.17 2.83-1.17Z" fill="#5243C2"/></g></svg>