<svg width="24" height="24" fill="none" xmlns="http://www.w3.org/2000/svg"><path d="m12 20.89 4.95-4.94a7.07 7.07 0 0 0 1.91-3.59c.27-1.36.13-2.76-.4-4.04a6.893 6.893 0 0 0-2.58-3.14 6.98 6.98 0 0 0-7.77 0 6.893 6.893 0 0 0-2.58 3.14 6.984 6.984 0 0 0-.4 4.04c.27 1.36.94 2.61 1.92 3.59L12 20.89Zm0 2.83-6.37-6.36a9 9 0 0 1-2.46-4.61C2.82 11 3 9.2 3.68 7.55a9.014 9.014 0 0 1 3.31-4.04A9.017 9.017 0 0 1 12 2c1.78 0 3.52.52 5 1.51s2.63 2.4 3.31 4.04c.68 1.65.86 3.45.51 5.2a9 9 0 0 1-2.46 4.61L12 23.72Zm0-10.73c.53 0 1.03-.21 1.41-.58.37-.38.59-.88.59-1.42 0-.53-.22-1.03-.59-1.41-.38-.37-.88-.59-1.41-.59-.54 0-1.04.22-1.42.59a2.016 2.016 0 0 0 0 2.83c.38.37.88.58 1.42.58Zm0 2c-1.07 0-2.08-.42-2.83-1.17A3.987 3.987 0 0 1 8 10.99c0-1.06.42-2.07 1.17-2.82S10.93 6.99 12 6.99c1.06 0 2.07.43 2.82 1.18A3.99 3.99 0 0 1 16 10.99c0 1.07-.43 2.08-1.18 2.83A3.98 3.98 0 0 1 12 14.99Z" fill="#FFA800"/></svg>