<svg width="88" height="35" fill="none" xmlns="http://www.w3.org/2000/svg"><defs><clipPath id="a"><path transform="translate(71.573 -.708)" fill="#fff" fill-opacity="0" d="M0 0h16v16H0z"/></clipPath></defs><path d="M24.86 11.1q.16.14.34.25.6.38 1.44.38.79 0 1.37-.36.19-.11.35-.27c.47-.43.7-.96.7-1.58 0-.64-.23-1.17-.7-1.58q-.19-.19-.41-.32-.56-.33-1.31-.33-.79 0-1.38.34-.21.13-.4.31-.29.26-.45.59-.22.44-.22.99 0 .47.17.87.17.39.5.71ZM.04 23.22q.76-.6.75-.6 2.35-1.94 3.69-3.19 1.37-1.25 2.31-2.61c.62-.92.93-1.8.93-2.67q0-.98-.45-1.53c-.31-.37-.76-.56-1.37-.56q-.51 0-.89.22-.32.17-.55.48-.51.67-.51 1.92H0q.04-2.04.86-3.41.61-.99 1.49-1.61.33-.23.69-.4.07-.04.14-.07 1.32-.58 2.89-.58 2.78 0 4.22 1.39.04.03.07.07c.98.98 1.47 2.25 1.47 3.82 0 1.71-.59 3.3-1.75 4.77q-1.76 2.19-4.47 4.28h6.48v3.33H.04v-3.05ZM37.1 26.7c-1.17 0-2.21-.2-3.12-.6-.91-.4-1.63-.94-2.16-1.63-.53-.7-.83-1.49-.89-2.35h4.06q.03.32.17.58.16.31.47.55.08.06.16.11.53.32 1.26.32c.51 0 .9-.1 1.18-.29.28-.21.43-.47.43-.79 0-.38-.2-.66-.6-.84-.4-.19-1.05-.4-1.95-.62-.96-.23-1.76-.46-2.4-.7a4.29 4.29 0 0 1-1.65-1.18c-.47-.54-.7-1.27-.7-2.18q0-.66.2-1.25.16-.44.43-.84c.43-.64 1.05-1.14 1.87-1.51.83-.37 1.81-.55 2.95-.55 1.68 0 3 .41 3.96 1.25.98.83 1.54 1.93 1.68 3.31h-3.79c-.07-.47-.27-.83-.63-1.11-.33-.27-.78-.4-1.34-.4-.48 0-.85.09-1.1.28-.26.18-.39.43-.39.75 0 .38.2.67.6.86.42.19 1.06.39 1.92.58.99.25 1.8.51 2.43.76.62.24 1.16.65 1.63 1.21.48.54.73 1.28.74 2.2 0 .79-.22 1.49-.67 2.12-.43.6-1.06 1.08-1.9 1.44-.81.35-1.76.52-2.85.52ZM18.41 15.35c.48-.73 1.08-1.31 1.8-1.73q.36-.22.75-.36.77-.28 1.65-.28v4.34h-1.13q-1.53 0-2.3.67c-.51.43-.77 1.2-.77 2.3v6.22h-4.1V13.12h4.1v2.23Zm47.67-.86c-.98-1.01-2.3-1.51-3.96-1.51-.94 0-1.82.23-2.62.69q-.91.53-1.53 1.3-.2.24-.36.5c-.45-.8-1.07-1.41-1.87-1.85q-.06-.03-.11-.06-1.14-.58-2.58-.58c-.85 0-1.61.16-2.28.5-.67.32-1.22.76-1.63 1.32v-1.68h-4.11v13.39h4.11v-7.27c0-.87.22-1.53.67-1.99.46-.48 1.09-.72 1.89-.72.8 0 1.43.24 1.88.72.46.46.69 1.12.69 1.99v7.27h4.08v-7.27c0-.87.23-1.53.67-1.99.47-.48 1.1-.72 1.9-.72.8 0 1.42.24 1.87.72.47.46.7 1.12.7 1.99v7.27h4.08v-7.82c0-1.79-.5-3.19-1.49-4.2Zm-37.4 12.02V13.12h-4.11v13.39h4.11Z" fill="#FFF" fill-rule="evenodd"/><path fill="none" d="M71.573-.708h16v16h-16z"/><g clip-path="url(#a)"><path d="M72.87 5.5c-.35-.12-.36-.31 0-.43L85.6.83c.35-.11.55.08.45.43l-3.63 12.72c-.1.36-.31.37-.46.03l-2.39-5.39 4-5.33-5.33 4-5.37-1.79Z" fill="#5243C2"/></g></svg>