<svg width="88" height="36" fill="none" xmlns="http://www.w3.org/2000/svg"><defs><clipPath id="a"><path transform="translate(71.573)" fill="#fff" fill-opacity="0" d="M0 0h16v16H0z"/></clipPath></defs><path d="M24.86 11.81q.16.14.34.25.6.37 1.44.37.79 0 1.37-.35.19-.12.35-.27c.47-.43.7-.96.7-1.58 0-.64-.23-1.17-.7-1.59q-.19-.18-.41-.31Q27.39 8 26.64 8q-.79 0-1.38.34-.21.13-.4.3-.29.27-.45.6-.22.44-.22.99 0 .47.17.87.17.39.5.71ZM.04 23.93q.76-.6.75-.6 2.35-1.94 3.69-3.19 1.37-1.25 2.31-2.62c.62-.91.93-1.8.93-2.66q0-.99-.45-1.54c-.31-.36-.76-.55-1.37-.55q-.51 0-.89.21-.32.18-.55.49-.5.67-.5 1.92H0q.04-2.04.86-3.41.61-1 1.49-1.61.33-.23.69-.41l.14-.06q1.32-.59 2.89-.59 2.78 0 4.22 1.4.04.03.07.07c.98.97 1.47 2.25 1.47 3.82 0 1.71-.59 3.3-1.75 4.77q-1.76 2.19-4.47 4.27h6.48v3.34H.04v-3.05Zm37.06 3.48c-1.17 0-2.21-.2-3.12-.6-.91-.4-1.63-.94-2.16-1.63-.53-.7-.83-1.49-.89-2.35h4.06q.03.31.17.58.16.31.47.55l.16.1q.53.33 1.26.33c.51 0 .9-.1 1.18-.29.28-.21.43-.47.43-.79 0-.39-.2-.67-.6-.84-.4-.2-1.05-.4-1.95-.63-.96-.22-1.76-.45-2.4-.69a4.29 4.29 0 0 1-1.65-1.18c-.47-.54-.7-1.27-.7-2.18q0-.66.2-1.25.16-.44.43-.84c.43-.64 1.05-1.14 1.87-1.51.83-.37 1.81-.55 2.95-.55 1.68 0 3 .41 3.96 1.24.98.84 1.54 1.94 1.68 3.32h-3.79c-.07-.47-.27-.84-.63-1.11-.33-.27-.78-.41-1.34-.41-.48 0-.85.1-1.1.29a.85.85 0 0 0-.39.75c0 .38.2.67.6.86.42.19 1.06.38 1.92.58.99.25 1.8.51 2.43.76.62.24 1.16.64 1.63 1.2.48.55.73 1.28.74 2.21 0 .79-.22 1.49-.67 2.11-.43.61-1.06 1.09-1.9 1.44-.81.36-1.76.53-2.85.53ZM18.41 16.06c.48-.74 1.08-1.31 1.8-1.73q.36-.22.75-.36.77-.29 1.65-.29v4.35h-1.13q-1.53 0-2.3.67c-.51.43-.77 1.2-.77 2.3v6.22h-4.1V13.83h4.1v2.23Zm47.67-.86c-.98-1.01-2.3-1.52-3.96-1.52-.94 0-1.82.23-2.62.7q-.91.53-1.53 1.3-.2.24-.36.5c-.45-.8-1.07-1.42-1.87-1.85q-.06-.03-.11-.06-1.14-.59-2.58-.59c-.85 0-1.61.17-2.28.51-.67.32-1.22.76-1.63 1.32v-1.68h-4.11v13.39h4.11v-7.27c0-.87.22-1.53.67-2 .46-.47 1.09-.71 1.89-.71.8 0 1.43.24 1.88.71.46.47.69 1.13.69 2v7.27h4.08v-7.27c0-.87.23-1.53.67-2 .47-.47 1.1-.71 1.9-.71.8 0 1.42.24 1.87.71.47.47.7 1.13.7 2v7.27h4.08v-7.83c0-1.79-.5-3.19-1.49-4.19Zm-37.4 12.02V13.83h-4.11v13.39h4.11Z" fill="#161414" fill-rule="evenodd"/><path fill="none" d="M71.573 0h16v16h-16z"/><g clip-path="url(#a)"><path d="M72.87 6.2c-.35-.11-.36-.3 0-.42L85.6 1.54c.35-.12.55.08.45.43l-3.63 12.72c-.1.35-.31.36-.46.03l-2.39-5.39 4-5.34-5.33 4-5.37-1.79Z" fill="#5243C2"/></g></svg>