<svg width="16" height="16" fill="none" xmlns="http://www.w3.org/2000/svg"><defs><clipPath id="a"><path fill="#fff" fill-opacity="0" d="M0 0h16v16H0z"/></clipPath></defs><path fill="none" d="M0 0h16v16H0z"/><g clip-path="url(#a)"><path d="m8 13.93 3.3-3.3a4.707 4.707 0 0 0 1.01-5.09A4.685 4.685 0 0 0 8 2.66c-.93 0-1.83.28-2.6.79a4.75 4.75 0 0 0-1.72 2.09 4.707 4.707 0 0 0 1.01 5.09L8 13.93Zm0 1.88-4.25-4.24A5.992 5.992 0 0 1 2.11 8.5c-.23-1.16-.11-2.37.34-3.47a6.048 6.048 0 0 1 2.21-2.69 6.014 6.014 0 0 1 6.67 0c.99.66 1.75 1.6 2.21 2.69.45 1.1.57 2.31.34 3.47-.23 1.16-.8 2.23-1.64 3.07L8 15.81Zm0-7.15a1.333 1.333 0 0 0 1.33-1.33A1.333 1.333 0 0 0 8 6c-.36 0-.7.14-.95.39s-.39.58-.39.94A1.333 1.333 0 0 0 8 8.66ZM8 10a2.68 2.68 0 0 1-2.67-2.67c0-.71.28-1.39.78-1.89a2.671 2.671 0 0 1 3.77 0A2.671 2.671 0 0 1 8 10Z" fill="#979797"/></g></svg>