<svg width="32" height="32" fill="none" xmlns="http://www.w3.org/2000/svg"><defs><clipPath id="a"><path transform="translate(0 -.584)" fill="#fff" fill-opacity="0" d="M0 0h32v32H0z"/></clipPath></defs><path fill="none" d="M0-.584h32v32H0z"/><g clip-path="url(#a)"><path d="M29.54 6.95c-1.01.45-2.09.75-3.2.88 1.17-.7 2.04-1.79 2.46-3.09-1.1.65-2.3 1.11-3.55 1.36a5.57 5.57 0 0 0-3.16-1.7c-1.21-.2-2.46.01-3.54.59a5.56 5.56 0 0 0-2.45 2.62 5.557 5.557 0 0 0-.35 3.57c-2.21-.11-4.38-.68-6.36-1.69-1.98-1-3.73-2.41-5.13-4.13-.5.85-.76 1.82-.76 2.8 0 1.93.99 3.64 2.48 4.64-.88-.03-1.75-.27-2.52-.7v.07c0 1.29.44 2.54 1.26 3.54.82.99 1.95 1.68 3.21 1.93-.82.22-1.68.26-2.52.1a5.55 5.55 0 0 0 1.99 2.77c.93.69 2.06 1.08 3.22 1.1-1.16.91-2.48 1.58-3.9 1.98-1.41.39-2.89.51-4.35.33 2.55 1.64 5.51 2.51 8.54 2.51 10.26 0 15.87-8.5 15.87-15.87 0-.24-.01-.48-.02-.72a11.44 11.44 0 0 0 2.79-2.89h-.01Z" fill="#5243C2"/></g></svg>