<svg width="16" height="16" fill="none" xmlns="http://www.w3.org/2000/svg"><defs><clipPath id="a"><path fill="#fff" fill-opacity="0" d="M0 0h16v16H0z"/></clipPath></defs><path fill="none" d="M0 0h16v16H0z"/><g clip-path="url(#a)"><path d="M2.66 14.66c0-1.41.56-2.77 1.56-3.77S6.58 9.33 8 9.33c1.41 0 2.77.56 3.77 1.56s1.56 2.36 1.56 3.77H12a4.014 4.014 0 0 0-4-4c-1.07 0-2.08.42-2.83 1.17S4 13.6 4 14.66H2.66Zm5.34-6c-2.22 0-4-1.79-4-4s1.78-4 4-4c2.21 0 4 1.79 4 4s-1.79 4-4 4Zm0-1.33c1.47 0 2.66-1.19 2.66-2.67C10.66 3.19 9.47 2 8 2 6.52 2 5.33 3.19 5.33 4.66c0 1.48 1.19 2.67 2.67 2.67Z" fill="#878787"/></g></svg>